<?xml version="1.0" encoding="utf-8"?>
<!-- Generator: Adobe Illustrator 24.0.2, SVG Export Plug-In . SVG Version: 6.00 Build 0)  -->
<svg version="1.1" id="Layer_1" xmlns="http://www.w3.org/2000/svg" xmlns:xlink="http://www.w3.org/1999/xlink" x="0px" y="0px"
	 viewBox="0 0 128 128" style="enable-background:new 0 0 128 128;" xml:space="preserve">
<style type="text/css">
	.st0{fill:#FFFFFF;}
</style>
<g>
	<g>
		<path class="st0" d="M64,28"/>
	</g>
</g>
<path class="st0" d="M64,0C28.7,0,0,28.7,0,64c0,35.3,28.7,64,64,64s64-28.7,64-64C128,28.7,99.3,0,64,0z M28,39h72
	c0.8,0,1.6,0.3,2.2,0.7L64,72.4L25.8,39.7C26.4,39.3,27.2,39,28,39z M104,85c0,2.2-1.8,4-4,4H28c-2.2,0-4-1.8-4-4V43.5l37.4,31.9
	c1.5,1.3,3.7,1.3,5.2,0l37.4-32V85z"/>
</svg>
