<?xml version="1.0" encoding="utf-8"?>
<!-- Generator: Adobe Illustrator 24.0.2, SVG Export Plug-In . SVG Version: 6.00 Build 0)  -->
<svg version="1.1" id="Layer_1" xmlns="http://www.w3.org/2000/svg" xmlns:xlink="http://www.w3.org/1999/xlink" x="0px" y="0px"
	 viewBox="0 0 243.866 280.417" style="enable-background:new 0 0 243.866 280.417;" xml:space="preserve">
<g>
	<path d="M238.807,140.406l-0.003-14.883c-0.004-17.494-0.009-34.987,0.044-52.484c0.001-0.289-0.017-0.464-0.032-0.561
		c-0.049-0.037-0.128-0.089-0.24-0.155c-11.327-6.486-22.628-13.015-33.93-19.546L179.678,38.36
		c-19.154-11.058-38.311-22.118-57.447-33.234C122.138,5.073,122.062,5.031,122,5c-0.007,0.004-0.014,0.008-0.022,0.013
		c-5.457,3.209-10.94,6.37-16.424,9.532l-6.805,3.928l-14.846,8.589c-26.08,15.09-52.164,30.179-78.276,45.224
		c-0.215,0.124-0.349,0.216-0.427,0.275c-0.009,0.074-0.016,0.184-0.016,0.338c0,44.86-0.062,90.182-0.183,134.714
		c0,0.055,0,0.103,0.001,0.145c0.032,0.02,0.067,0.041,0.108,0.065c14.966,8.563,30.137,17.335,44.809,25.816l8.798,5.085
		c21.131,12.215,42.27,24.434,63.375,36.694c0.001,0,0.001,0.001,0.003,0.001c7.203-4.263,14.562-8.51,21.679-12.617l19.372-11.191
		c25.235-14.58,50.469-29.162,75.72-43.683 M146.439,33.752l0.513-0.535c0.838-0.878,1.974-1.337,3.125-1.337
		c0.735,0,1.476,0.187,2.146,0.572c0,0,10.611,6.08,13.514,7.75l5.59,3.219c14.94,8.605,29.877,17.208,44.788,25.84
		c1.147,0.661,1.936,1.499,2.572,2.171c0.171,0.182,0.342,0.365,0.521,0.534c0.906,0.85,1.401,2.049,1.36,3.29
		s-0.614,2.405-1.574,3.193c-0.193,0.158-0.377,0.327-0.563,0.495c-0.592,0.535-1.33,1.199-2.281,1.749
		c-3.399,1.968-6.805,3.923-10.21,5.877c-5.343,3.066-10.866,6.236-16.26,9.404c-0.888,0.522-2.262,1.215-3.949,1.215
		c-2.276,0-4.192-1.207-5.694-3.592c-7.464-11.88-14.962-23.739-22.462-35.598l-10.879-17.214c-0.433-0.691-0.698-1.341-0.913-1.865
		c-0.056-0.138-0.112-0.278-0.173-0.414C144.892,36.901,145.219,35.02,146.439,33.752z M113.751,31.064l2.74-4.344
		c1.026-1.626,2.579-4.083,5.603-4.083c3.006,0,4.596,2.52,5.451,3.873c11.769,18.634,23.512,37.279,35.256,55.925l6.186,9.82
		c0.355,0.57,0.552,1.083,0.742,1.579c0.073,0.193,0.163,0.427,0.285,0.722c0.552,1.332,0.403,2.852-0.398,4.051
		c-0.801,1.199-2.148,1.919-3.59,1.919H77.95c-1.555,0-2.991-0.838-3.758-2.192c-0.766-1.355-0.743-3.016,0.059-4.35l1.256-2.104
		c0.84-1.411,1.596-2.681,2.382-3.927C89.835,68.985,101.793,50.024,113.751,31.064z M22.759,74.493
		c0.116-1.41,0.917-2.674,2.143-3.381l66.976-38.647c0.673-0.389,1.417-0.578,2.156-0.578c1.12,0,2.227,0.435,3.059,1.27
		c0.153,0.152,0.306,0.299,0.464,0.447c1.365,1.276,1.754,3.283,0.966,4.976c-0.084,0.181-0.162,0.365-0.239,0.549
		c-0.244,0.582-0.549,1.305-1.019,2.044L85.51,59.737c-7.227,11.411-14.455,22.824-21.661,34.25c-1.394,2.21-3.197,3.33-5.358,3.33
		c-1.152,0-2.296-0.337-3.504-1.034c-6.359-3.686-12.731-7.341-19.105-10.997L26.5,79.9c-0.576-0.332-0.978-0.682-1.402-1.052
		c-0.192-0.168-0.438-0.384-0.783-0.667C23.223,77.281,22.641,75.903,22.759,74.493z M17.879,171.663l-0.784-0.263
		c-1.765-0.587-2.955-2.237-2.955-4.096V90.125c0-1.544,0.825-2.971,2.164-3.741c0.666-0.384,1.409-0.575,2.153-0.575
		c0.749,0,1.498,0.195,2.168,0.584l31.718,18.422c1.998,1.161,2.728,3.69,1.656,5.737l-30.934,59.02
		c-0.762,1.454-2.255,2.314-3.824,2.314C18.787,171.884,18.328,171.812,17.879,171.663z M20.24,198.916
		c-0.742-1.279-0.776-2.85-0.093-4.161l38.308-73.424c0.731-1.398,2.164-2.287,3.741-2.319c0.03-0.001,0.059-0.001,0.087-0.001
		c1.544,0,2.972,0.825,3.743,2.167l44.028,76.678c0.783,1.363,0.763,3.042-0.051,4.387c-0.784,1.294-2.187,2.08-3.693,2.08
		c-0.056,0-54.766-2.164-82.506-3.257C22.326,201.007,20.982,200.197,20.24,198.916z M117.455,241.932l-0.021,11.51
		c0,1.029-0.341,1.782-0.525,2.186c-0.043,0.098-0.103,0.228-0.178,0.41c-0.475,1.151-1.424,2.042-2.602,2.442
		c-0.451,0.153-0.92,0.229-1.388,0.229c-0.752,0-1.498-0.197-2.163-0.58L43.994,219.6c-1.522-0.881-2.357-2.595-2.112-4.336
		s1.521-3.16,3.225-3.587c0.313-0.079,0.558-0.152,0.759-0.211c0.559-0.166,1.253-0.372,2.125-0.372c0.056,0,0.17,0.003,0.226,0.004
		c10.484,0.409,52.412,2.063,62.905,2.472c5.955,0.246,6.399,4.856,6.394,6.269C117.476,227.202,117.465,234.568,117.455,241.932z
		 M122.078,196.032c-1.542,0-2.965-0.822-3.736-2.156c-13.331-23.042-44.858-77.508-44.858-77.508
		c-0.773-1.336-0.774-2.982-0.003-4.319c0.77-1.337,2.196-2.16,3.739-2.16h89.698c1.543,0,2.969,0.823,3.739,2.16
		c0.771,1.337,0.77,2.983-0.003,4.319l-44.84,77.51C125.044,195.211,123.618,196.032,122.078,196.032z M199.582,219.937
		l-66.293,38.362c-0.667,0.386-1.414,0.58-2.161,0.58c-0.696,0-1.393-0.169-2.028-0.506c-1.315-0.7-2.177-2.028-2.279-3.514
		c-0.034-0.495-0.067-0.909-0.097-1.275c-0.07-0.846-0.115-1.474-0.115-2.095c-0.004-3.464-0.003-6.926-0.001-10.39
		c0.003-6.819,0.006-13.64-0.04-20.457c-0.032-4.356,2.407-6.944,6.692-7.102c15.149-0.552,30.299-1.156,45.45-1.759l16.729-0.665
		c0.222-0.008,0.444-0.011,0.667-0.011l0.998,0.008c1.737,0,3.305,1.041,3.979,2.642l0.318,0.77
		C202.244,216.529,201.465,218.848,199.582,219.937z M178.146,121.159c0.77-1.343,2.199-2.168,3.743-2.168
		c0.028,0,0.058,0,0.087,0.001c1.577,0.032,3.01,0.921,3.739,2.319l38.323,73.431c0.683,1.311,0.649,2.881-0.093,4.161
		c-0.74,1.279-2.085,2.091-3.563,2.15c-27.591,1.1-82.472,3.278-82.529,3.278c-1.506,0-2.907-0.786-3.693-2.08
		c-0.813-1.345-0.833-3.024-0.051-4.386 M230.12,167.269c0,1.843-1.169,3.482-2.912,4.082l-0.649,0.223
		c-0.462,0.159-0.936,0.235-1.404,0.235c-1.433-0.001-2.81-0.715-3.624-1.969c-0.124-0.192-0.253-0.381-0.381-0.57
		c-0.372-0.548-0.795-1.17-1.183-1.905c-4.116-7.838-8.223-15.681-12.332-23.524l-9.789-18.678
		c-2.164-4.126-4.401-8.394-6.658-12.546c-2.282-4.206-0.259-7.332,2.39-8.851c6.031-3.471,12.047-6.968,18.061-10.464l9.686-5.625
		c0.646-0.373,1.242-0.604,1.873-0.849c0.269-0.104,0.575-0.223,0.937-0.374c0.535-0.225,1.102-0.335,1.667-0.335
		c0.839,0,1.672,0.245,2.392,0.723c1.203,0.8,1.925,2.149,1.925,3.594V167.269z"/>
</g>
</svg>
